<svg aria-label="A chart." style="overflow: hidden;" height="300"
                    width="450">
                    <defs id="defs"></defs>
                         <path fill="darkgreen" stroke-width="1" stroke="darkgreen" d="M151.73205081,121.00000000 L153.46410162,62.00000000 A90.00000000,60.00000000,0,0,1,220.34713591,81.85216362 M220.34713591,81.85216362 L151.73205081,121.00000000"></path><path fill="darkgreen" stroke-width="1" stroke="darkgreen" d="M151.73205081,121.00000000 L220.34713591,81.85216362 A90.00000000,60.00000000,0,0,1,242.97107220,128.27170780 M242.97107220,128.27170780 L151.73205081,121.00000000"></path><path fill="darkgreen" stroke-width="1" stroke="darkgreen" d="M151.73205081,121.00000000 L242.97107220,128.27170780 A90.00000000,60.00000000,0,0,1,206.36477432,170.54101966 M206.36477432,170.54101966 L151.73205081,121.00000000"></path><path fill="darkgreen" stroke-width="1" stroke="darkgreen" d="M151.73205081,121.00000000 L206.36477432,170.54101966 A90.00000000,60.00000000,0,0,1,134.75204944,180.68885604 M134.75204944,180.68885604 L151.73205081,121.00000000"></path><path fill="darkgreen" stroke-width="1" stroke="darkgreen" d="M151.73205081,121.00000000 L134.75204944,180.68885604 A90.00000000,60.00000000,0,0,1,75.52181527,152.00000000 M75.52181527,152.00000000 L151.73205081,121.00000000"></path><path fill="darkred" stroke-width="1" stroke="darkred" d="M148.26794919,119.00000000 L68.59361204,148.00000000 A90.00000000,60.00000000,0,0,1,57.02892780,124.27170780 M57.02892780,124.27170780 L148.26794919,119.00000000"></path><path fill="darkred" stroke-width="1" stroke="darkred" d="M148.26794919,119.00000000 L57.02892780,124.27170780 A90.00000000,60.00000000,0,0,1,60.94081192,99.45898034 M60.94081192,99.45898034 L148.26794919,119.00000000"></path><path fill="darkred" stroke-width="1" stroke="darkred" d="M148.26794919,119.00000000 L60.94081192,99.45898034 A90.00000000,60.00000000,0,0,1,79.65286409,77.85216362 M79.65286409,77.85216362 L148.26794919,119.00000000"></path><path fill="darkred" stroke-width="1" stroke="darkred" d="M148.26794919,119.00000000 L79.65286409,77.85216362 A90.00000000,60.00000000,0,0,1,109.92960051,63.18727254 M109.92960051,63.18727254 L148.26794919,119.00000000"></path><path fill="darkred" stroke-width="1" stroke="darkred" d="M148.26794919,119.00000000 L109.92960051,63.18727254 A90.00000000,60.00000000,0,0,1,146.53589838,58.00000000 M146.53589838,58.00000000 L148.26794919,119.00000000"></path><path fill="darkgreen" stroke-width="1" stroke="darkgreen" d="M151.73205081,121.00000000 L153.46410162,62.00000000 L153.46410162,42.00000000 L151.73205081,101.00000000 L151.73205081,121.00000000 "></path><path fill="darkred" stroke-width="1" stroke="darkred" d="M148.26794919,119.00000000 L68.59361204,148.00000000 L68.59361204,128.00000000 L148.26794919,99.00000000 L148.26794919,119.00000000 "></path><path fill="darkgreen" stroke-width="1" stroke="darkgreen" d="M151.73205081,121.00000000 L75.52181527,152.00000000 L75.52181527,132.00000000 L151.73205081,101.00000000 L151.73205081,121.00000000 "></path><path fill="darkred" stroke-width="1" stroke="darkred" d="M148.26794919,119.00000000 L146.53589838,58.00000000 L146.53589838,38.00000000 L148.26794919,99.00000000 L148.26794919,119.00000000 "></path><path fill="darkgray" stroke-width="1" stroke="darkgray" d="M150.00000000,118.00000000 L150.00000000,56.00000000 L150.00000000,36.00000000 L150.00000000,98.00000000 L150.00000000,118.00000000 "></path><path fill="goldenrod" stroke-width="1" stroke="goldenrod" d="M150.00000000,118.00000000 L150.00000000,56.00000000 L150.00000000,36.00000000 L150.00000000,98.00000000 L150.00000000,118.00000000 "></path><path fill="green" stroke-width="1" stroke="green" d="M151.73205081,101.00000000 L153.46410162,42.00000000 A90.00000000,60.00000000,0,0,1,220.34713591,61.85216362 M220.34713591,61.85216362 L151.73205081,101.00000000"></path><path fill="green" stroke-width="1" stroke="green" d="M151.73205081,101.00000000 L220.34713591,61.85216362 A90.00000000,60.00000000,0,0,1,242.97107220,108.27170780 M242.97107220,108.27170780 L151.73205081,101.00000000"></path><path fill="green" stroke-width="1" stroke="green" d="M151.73205081,101.00000000 L242.97107220,108.27170780 A90.00000000,60.00000000,0,0,1,206.36477432,150.54101966 M206.36477432,150.54101966 L151.73205081,101.00000000"></path><path fill="green" stroke-width="1" stroke="green" d="M151.73205081,101.00000000 L206.36477432,150.54101966 A90.00000000,60.00000000,0,0,1,134.75204944,160.68885604 M134.75204944,160.68885604 L151.73205081,101.00000000"></path><path fill="green" stroke-width="1" stroke="green" d="M151.73205081,101.00000000 L134.75204944,160.68885604 A90.00000000,60.00000000,0,0,1,75.52181527,132.00000000 M75.52181527,132.00000000 L151.73205081,101.00000000"></path><path fill="red" stroke-width="1" stroke="red" d="M148.26794919,99.00000000 L68.59361204,128.00000000 A90.00000000,60.00000000,0,0,1,57.02892780,104.27170780 M57.02892780,104.27170780 L148.26794919,99.00000000"></path><path fill="red" stroke-width="1" stroke="red" d="M148.26794919,99.00000000 L57.02892780,104.27170780 A90.00000000,60.00000000,0,0,1,60.94081192,79.45898034 M60.94081192,79.45898034 L148.26794919,99.00000000"></path><path fill="red" stroke-width="1" stroke="red" d="M148.26794919,99.00000000 L60.94081192,79.45898034 A90.00000000,60.00000000,0,0,1,79.65286409,57.85216362 M79.65286409,57.85216362 L148.26794919,99.00000000"></path><path fill="red" stroke-width="1" stroke="red" d="M148.26794919,99.00000000 L79.65286409,57.85216362 A90.00000000,60.00000000,0,0,1,109.92960051,43.18727254 M109.92960051,43.18727254 L148.26794919,99.00000000"></path><path fill="red" stroke-width="1" stroke="red" d="M148.26794919,99.00000000 L109.92960051,43.18727254 A90.00000000,60.00000000,0,0,1,146.53589838,38.00000000 M146.53589838,38.00000000 L148.26794919,99.00000000"></path><text x="280" y="67" font-weight = "bold" font-size = "14">67% (2) Passed</text><circle cx="270" cy="62" r="5" stroke="darkgreen" stroke-width="1" fill="green" /><text x="280" y="97" font-weight = "bold" font-size = "14">33% (1) Failed</text><circle cx="270" cy="92" r="5" stroke="darkred" stroke-width="1" fill="red" /><text x="280" y="127" font-weight = "bold" font-size = "14">0% (0) Undefined</text><circle cx="270" cy="122" r="5" stroke="darkgray" stroke-width="1" fill="silver" /><text x="280" y="157" font-weight = "bold" font-size = "14">0% (0) Known</text><circle cx="270" cy="152" r="5" stroke="goldenrod" stroke-width="1" fill="gold" />
                    </svg>