<svg aria-label="A chart." style="overflow: hidden;" height="300"
                    width="450">
                    <defs id="defs"></defs>
                         <path fill="darkgreen" stroke-width="1" stroke="darkgreen" d="M151.17557050,121.61803399 L152.35114101,63.23606798 A90.00000000,60.00000000,0,0,1,228.34065430,91.08646028 M228.34065430,91.08646028 L151.17557050,121.61803399"></path><path fill="darkgreen" stroke-width="1" stroke="darkgreen" d="M151.17557050,121.61803399 L228.34065430,91.08646028 A90.00000000,60.00000000,0,0,1,233.78557573,148.78282547 M233.78557573,148.78282547 L151.17557050,121.61803399"></path><path fill="darkgreen" stroke-width="1" stroke="darkgreen" d="M151.17557050,121.61803399 L233.78557573,148.78282547 A90.00000000,60.00000000,0,0,1,163.63113203,182.76295006 M163.63113203,182.76295006 L151.17557050,121.61803399"></path><path fill="darkgreen" stroke-width="1" stroke="darkgreen" d="M151.17557050,121.61803399 L163.63113203,182.76295006 A90.00000000,60.00000000,0,0,1,83.00494916,161.48150736 M83.00494916,161.48150736 L151.17557050,121.61803399"></path><path fill="darkgreen" stroke-width="1" stroke="darkgreen" d="M151.17557050,121.61803399 L83.00494916,161.48150736 A90.00000000,60.00000000,0,0,1,66.75605454,104.69504832 M66.75605454,104.69504832 L151.17557050,121.61803399"></path><path fill="darkred" stroke-width="1" stroke="darkred" d="M148.82442950,118.38196601 L62.05377252,98.22291236 A90.00000000,60.00000000,0,0,1,71.65934570,84.61432432 M71.65934570,84.61432432 L148.82442950,118.38196601"></path><path fill="darkred" stroke-width="1" stroke="darkred" d="M148.82442950,118.38196601 L71.65934570,84.61432432 A90.00000000,60.00000000,0,0,1,86.03961946,73.02581438 M86.03961946,73.02581438 L148.82442950,118.38196601"></path><path fill="darkred" stroke-width="1" stroke="darkred" d="M148.82442950,118.38196601 L86.03961946,73.02581438 A90.00000000,60.00000000,0,0,1,104.29102832,64.18553122 M104.29102832,64.18553122 L148.82442950,118.38196601"></path><path fill="darkred" stroke-width="1" stroke="darkred" d="M148.82442950,118.38196601 L104.29102832,64.18553122 A90.00000000,60.00000000,0,0,1,125.26676915,58.64894235 M125.26676915,58.64894235 L148.82442950,118.38196601"></path><path fill="darkred" stroke-width="1" stroke="darkred" d="M148.82442950,118.38196601 L125.26676915,58.64894235 A90.00000000,60.00000000,0,0,1,147.64885899,56.76393202 M147.64885899,56.76393202 L148.82442950,118.38196601"></path><path fill="darkgreen" stroke-width="1" stroke="darkgreen" d="M151.17557050,121.61803399 L152.35114101,63.23606798 L152.35114101,43.23606798 L151.17557050,101.61803399 L151.17557050,121.61803399 "></path><path fill="darkred" stroke-width="1" stroke="darkred" d="M148.82442950,118.38196601 L62.05377252,98.22291236 L62.05377252,78.22291236 L148.82442950,98.38196601 L148.82442950,118.38196601 "></path><path fill="darkgreen" stroke-width="1" stroke="darkgreen" d="M151.17557050,121.61803399 L66.75605454,104.69504832 L66.75605454,84.69504832 L151.17557050,101.61803399 L151.17557050,121.61803399 "></path><path fill="darkred" stroke-width="1" stroke="darkred" d="M148.82442950,118.38196601 L147.64885899,56.76393202 L147.64885899,36.76393202 L148.82442950,98.38196601 L148.82442950,118.38196601 "></path><path fill="darkgray" stroke-width="1" stroke="darkgray" d="M150.00000000,118.00000000 L150.00000000,56.00000000 L150.00000000,36.00000000 L150.00000000,98.00000000 L150.00000000,118.00000000 "></path><path fill="goldenrod" stroke-width="1" stroke="goldenrod" d="M150.00000000,118.00000000 L150.00000000,56.00000000 L150.00000000,36.00000000 L150.00000000,98.00000000 L150.00000000,118.00000000 "></path><path fill="green" stroke-width="1" stroke="green" d="M151.17557050,101.61803399 L152.35114101,43.23606798 A90.00000000,60.00000000,0,0,1,228.34065430,71.08646028 M228.34065430,71.08646028 L151.17557050,101.61803399"></path><path fill="green" stroke-width="1" stroke="green" d="M151.17557050,101.61803399 L228.34065430,71.08646028 A90.00000000,60.00000000,0,0,1,233.78557573,128.78282547 M233.78557573,128.78282547 L151.17557050,101.61803399"></path><path fill="green" stroke-width="1" stroke="green" d="M151.17557050,101.61803399 L233.78557573,128.78282547 A90.00000000,60.00000000,0,0,1,163.63113203,162.76295006 M163.63113203,162.76295006 L151.17557050,101.61803399"></path><path fill="green" stroke-width="1" stroke="green" d="M151.17557050,101.61803399 L163.63113203,162.76295006 A90.00000000,60.00000000,0,0,1,83.00494916,141.48150736 M83.00494916,141.48150736 L151.17557050,101.61803399"></path><path fill="green" stroke-width="1" stroke="green" d="M151.17557050,101.61803399 L83.00494916,141.48150736 A90.00000000,60.00000000,0,0,1,66.75605454,84.69504832 M66.75605454,84.69504832 L151.17557050,101.61803399"></path><path fill="red" stroke-width="1" stroke="red" d="M148.82442950,98.38196601 L62.05377252,78.22291236 A90.00000000,60.00000000,0,0,1,71.65934570,64.61432432 M71.65934570,64.61432432 L148.82442950,98.38196601"></path><path fill="red" stroke-width="1" stroke="red" d="M148.82442950,98.38196601 L71.65934570,64.61432432 A90.00000000,60.00000000,0,0,1,86.03961946,53.02581438 M86.03961946,53.02581438 L148.82442950,98.38196601"></path><path fill="red" stroke-width="1" stroke="red" d="M148.82442950,98.38196601 L86.03961946,53.02581438 A90.00000000,60.00000000,0,0,1,104.29102832,44.18553122 M104.29102832,44.18553122 L148.82442950,98.38196601"></path><path fill="red" stroke-width="1" stroke="red" d="M148.82442950,98.38196601 L104.29102832,44.18553122 A90.00000000,60.00000000,0,0,1,125.26676915,38.64894235 M125.26676915,38.64894235 L148.82442950,98.38196601"></path><path fill="red" stroke-width="1" stroke="red" d="M148.82442950,98.38196601 L125.26676915,38.64894235 A90.00000000,60.00000000,0,0,1,147.64885899,36.76393202 M147.64885899,36.76393202 L148.82442950,98.38196601"></path><text x="280" y="67" font-weight = "bold" font-size = "14">80% (4) Passed</text><circle cx="270" cy="62" r="5" stroke="darkgreen" stroke-width="1" fill="green" /><text x="280" y="97" font-weight = "bold" font-size = "14">20% (1) Failed</text><circle cx="270" cy="92" r="5" stroke="darkred" stroke-width="1" fill="red" /><text x="280" y="127" font-weight = "bold" font-size = "14">0% (0) Undefined</text><circle cx="270" cy="122" r="5" stroke="darkgray" stroke-width="1" fill="silver" /><text x="280" y="157" font-weight = "bold" font-size = "14">0% (0) Known</text><circle cx="270" cy="152" r="5" stroke="goldenrod" stroke-width="1" fill="gold" />
                    </svg>