<svg aria-label="A chart." style="overflow: hidden;" height="300"
                    width="450">
                    <defs id="defs"></defs>
                         <path fill="darkgreen" stroke-width="1" stroke="darkgreen" d="M151.41421356,121.41421356 L152.82842712,62.82842712 A90.00000000,60.00000000,0,0,1,225.63995662,87.56131199 M225.63995662,87.56131199 L151.41421356,121.41421356"></path><path fill="darkgreen" stroke-width="1" stroke="darkgreen" d="M151.41421356,121.41421356 L225.63995662,87.56131199 A90.00000000,60.00000000,0,0,1,238.42351359,141.36944679 M238.42351359,141.36944679 L151.41421356,121.41421356"></path><path fill="darkgreen" stroke-width="1" stroke="darkgreen" d="M151.41421356,121.41421356 L238.42351359,141.36944679 A90.00000000,60.00000000,0,0,1,180.63995662,179.89181810 M180.63995662,179.89181810 L151.41421356,121.41421356"></path><path fill="darkgreen" stroke-width="1" stroke="darkgreen" d="M151.41421356,121.41421356 L180.63995662,179.89181810 A90.00000000,60.00000000,0,0,1,99.92775442,171.36944679 M99.92775442,171.36944679 L151.41421356,121.41421356"></path><path fill="darkgreen" stroke-width="1" stroke="darkgreen" d="M151.41421356,121.41421356 L99.92775442,171.36944679 A90.00000000,60.00000000,0,0,1,62.82842712,122.82842712 M62.82842712,122.82842712 L151.41421356,121.41421356"></path><path fill="darkred" stroke-width="1" stroke="darkred" d="M148.58578644,118.58578644 L57.17157288,117.17157288 A90.00000000,60.00000000,0,0,1,61.57648641,98.63055321 M61.57648641,98.63055321 L148.58578644,118.58578644"></path><path fill="darkred" stroke-width="1" stroke="darkred" d="M148.58578644,118.58578644 L61.57648641,98.63055321 A90.00000000,60.00000000,0,0,1,74.36004338,81.90445774 M74.36004338,81.90445774 L148.58578644,118.58578644"></path><path fill="darkred" stroke-width="1" stroke="darkred" d="M148.58578644,118.58578644 L74.36004338,81.90445774 A90.00000000,60.00000000,0,0,1,94.27090017,68.63055321 M94.27090017,68.63055321 L148.58578644,118.58578644"></path><path fill="darkred" stroke-width="1" stroke="darkred" d="M148.58578644,118.58578644 L94.27090017,68.63055321 A90.00000000,60.00000000,0,0,1,119.36004338,60.10818190 M119.36004338,60.10818190 L148.58578644,118.58578644"></path><path fill="darkred" stroke-width="1" stroke="darkred" d="M148.58578644,118.58578644 L119.36004338,60.10818190 A90.00000000,60.00000000,0,0,1,147.17157288,57.17157288 M147.17157288,57.17157288 L148.58578644,118.58578644"></path><path fill="darkgreen" stroke-width="1" stroke="darkgreen" d="M151.41421356,121.41421356 L152.82842712,62.82842712 L152.82842712,42.82842712 L151.41421356,101.41421356 L151.41421356,121.41421356 "></path><path fill="darkred" stroke-width="1" stroke="darkred" d="M148.58578644,118.58578644 L57.17157288,117.17157288 L57.17157288,97.17157288 L148.58578644,98.58578644 L148.58578644,118.58578644 "></path><path fill="darkgreen" stroke-width="1" stroke="darkgreen" d="M151.41421356,121.41421356 L62.82842712,122.82842712 L62.82842712,102.82842712 L151.41421356,101.41421356 L151.41421356,121.41421356 "></path><path fill="darkred" stroke-width="1" stroke="darkred" d="M148.58578644,118.58578644 L147.17157288,57.17157288 L147.17157288,37.17157288 L148.58578644,98.58578644 L148.58578644,118.58578644 "></path><path fill="darkgray" stroke-width="1" stroke="darkgray" d="M150.00000000,118.00000000 L150.00000000,56.00000000 L150.00000000,36.00000000 L150.00000000,98.00000000 L150.00000000,118.00000000 "></path><path fill="goldenrod" stroke-width="1" stroke="goldenrod" d="M150.00000000,118.00000000 L150.00000000,56.00000000 L150.00000000,36.00000000 L150.00000000,98.00000000 L150.00000000,118.00000000 "></path><path fill="green" stroke-width="1" stroke="green" d="M151.41421356,101.41421356 L152.82842712,42.82842712 A90.00000000,60.00000000,0,0,1,225.63995662,67.56131199 M225.63995662,67.56131199 L151.41421356,101.41421356"></path><path fill="green" stroke-width="1" stroke="green" d="M151.41421356,101.41421356 L225.63995662,67.56131199 A90.00000000,60.00000000,0,0,1,238.42351359,121.36944679 M238.42351359,121.36944679 L151.41421356,101.41421356"></path><path fill="green" stroke-width="1" stroke="green" d="M151.41421356,101.41421356 L238.42351359,121.36944679 A90.00000000,60.00000000,0,0,1,180.63995662,159.89181810 M180.63995662,159.89181810 L151.41421356,101.41421356"></path><path fill="green" stroke-width="1" stroke="green" d="M151.41421356,101.41421356 L180.63995662,159.89181810 A90.00000000,60.00000000,0,0,1,99.92775442,151.36944679 M99.92775442,151.36944679 L151.41421356,101.41421356"></path><path fill="green" stroke-width="1" stroke="green" d="M151.41421356,101.41421356 L99.92775442,151.36944679 A90.00000000,60.00000000,0,0,1,62.82842712,102.82842712 M62.82842712,102.82842712 L151.41421356,101.41421356"></path><path fill="red" stroke-width="1" stroke="red" d="M148.58578644,98.58578644 L57.17157288,97.17157288 A90.00000000,60.00000000,0,0,1,61.57648641,78.63055321 M61.57648641,78.63055321 L148.58578644,98.58578644"></path><path fill="red" stroke-width="1" stroke="red" d="M148.58578644,98.58578644 L61.57648641,78.63055321 A90.00000000,60.00000000,0,0,1,74.36004338,61.90445774 M74.36004338,61.90445774 L148.58578644,98.58578644"></path><path fill="red" stroke-width="1" stroke="red" d="M148.58578644,98.58578644 L74.36004338,61.90445774 A90.00000000,60.00000000,0,0,1,94.27090017,48.63055321 M94.27090017,48.63055321 L148.58578644,98.58578644"></path><path fill="red" stroke-width="1" stroke="red" d="M148.58578644,98.58578644 L94.27090017,48.63055321 A90.00000000,60.00000000,0,0,1,119.36004338,40.10818190 M119.36004338,40.10818190 L148.58578644,98.58578644"></path><path fill="red" stroke-width="1" stroke="red" d="M148.58578644,98.58578644 L119.36004338,40.10818190 A90.00000000,60.00000000,0,0,1,147.17157288,37.17157288 M147.17157288,37.17157288 L148.58578644,98.58578644"></path><text x="280" y="67" font-weight = "bold" font-size = "14">75% (3) Passed</text><circle cx="270" cy="62" r="5" stroke="darkgreen" stroke-width="1" fill="green" /><text x="280" y="97" font-weight = "bold" font-size = "14">25% (1) Failed</text><circle cx="270" cy="92" r="5" stroke="darkred" stroke-width="1" fill="red" /><text x="280" y="127" font-weight = "bold" font-size = "14">0% (0) Undefined</text><circle cx="270" cy="122" r="5" stroke="darkgray" stroke-width="1" fill="silver" /><text x="280" y="157" font-weight = "bold" font-size = "14">0% (0) Known</text><circle cx="270" cy="152" r="5" stroke="goldenrod" stroke-width="1" fill="gold" />
                    </svg>