<svg aria-label="A chart." style="overflow: hidden;" height="300"
                    width="450">
                    <defs id="defs"></defs>
                         <path fill="darkgreen" stroke-width="1" stroke="darkgreen" d="M151.73205081,119.00000000 L153.46410162,58.00000000 A90.00000000,60.00000000,0,0,1,190.07039949,63.18727254 M190.07039949,63.18727254 L151.73205081,119.00000000"></path><path fill="darkgreen" stroke-width="1" stroke="darkgreen" d="M151.73205081,119.00000000 L190.07039949,63.18727254 A90.00000000,60.00000000,0,0,1,220.34713591,77.85216362 M220.34713591,77.85216362 L151.73205081,119.00000000"></path><path fill="darkgreen" stroke-width="1" stroke="darkgreen" d="M151.73205081,119.00000000 L220.34713591,77.85216362 A90.00000000,60.00000000,0,0,1,239.05918808,99.45898034 M239.05918808,99.45898034 L151.73205081,119.00000000"></path><path fill="darkgreen" stroke-width="1" stroke="darkgreen" d="M151.73205081,119.00000000 L239.05918808,99.45898034 A90.00000000,60.00000000,0,0,1,242.97107220,124.27170780 M242.97107220,124.27170780 L151.73205081,119.00000000"></path><path fill="darkgreen" stroke-width="1" stroke="darkgreen" d="M151.73205081,119.00000000 L242.97107220,124.27170780 A90.00000000,60.00000000,0,0,1,231.40638796,148.00000000 M231.40638796,148.00000000 L151.73205081,119.00000000"></path><path fill="darkred" stroke-width="1" stroke="darkred" d="M148.26794919,121.00000000 L224.47818473,152.00000000 A90.00000000,60.00000000,0,0,1,165.24795056,180.68885604 M165.24795056,180.68885604 L148.26794919,121.00000000"></path><path fill="darkred" stroke-width="1" stroke="darkred" d="M148.26794919,121.00000000 L165.24795056,180.68885604 A90.00000000,60.00000000,0,0,1,93.63522568,170.54101966 M93.63522568,170.54101966 L148.26794919,121.00000000"></path><path fill="darkred" stroke-width="1" stroke="darkred" d="M148.26794919,121.00000000 L93.63522568,170.54101966 A90.00000000,60.00000000,0,0,1,57.02892780,128.27170780 M57.02892780,128.27170780 L148.26794919,121.00000000"></path><path fill="darkred" stroke-width="1" stroke="darkred" d="M148.26794919,121.00000000 L57.02892780,128.27170780 A90.00000000,60.00000000,0,0,1,79.65286409,81.85216362 M79.65286409,81.85216362 L148.26794919,121.00000000"></path><path fill="darkred" stroke-width="1" stroke="darkred" d="M148.26794919,121.00000000 L79.65286409,81.85216362 A90.00000000,60.00000000,0,0,1,146.53589838,62.00000000 M146.53589838,62.00000000 L148.26794919,121.00000000"></path><path fill="darkgreen" stroke-width="1" stroke="darkgreen" d="M151.73205081,119.00000000 L153.46410162,58.00000000 L153.46410162,38.00000000 L151.73205081,99.00000000 L151.73205081,119.00000000 "></path><path fill="darkred" stroke-width="1" stroke="darkred" d="M148.26794919,121.00000000 L224.47818473,152.00000000 L224.47818473,132.00000000 L148.26794919,101.00000000 L148.26794919,121.00000000 "></path><path fill="darkgreen" stroke-width="1" stroke="darkgreen" d="M151.73205081,119.00000000 L231.40638796,148.00000000 L231.40638796,128.00000000 L151.73205081,99.00000000 L151.73205081,119.00000000 "></path><path fill="darkred" stroke-width="1" stroke="darkred" d="M148.26794919,121.00000000 L146.53589838,62.00000000 L146.53589838,42.00000000 L148.26794919,101.00000000 L148.26794919,121.00000000 "></path><path fill="darkgray" stroke-width="1" stroke="darkgray" d="M150.00000000,118.00000000 L150.00000000,56.00000000 L150.00000000,36.00000000 L150.00000000,98.00000000 L150.00000000,118.00000000 "></path><path fill="goldenrod" stroke-width="1" stroke="goldenrod" d="M150.00000000,118.00000000 L150.00000000,56.00000000 L150.00000000,36.00000000 L150.00000000,98.00000000 L150.00000000,118.00000000 "></path><path fill="green" stroke-width="1" stroke="green" d="M151.73205081,99.00000000 L153.46410162,38.00000000 A90.00000000,60.00000000,0,0,1,190.07039949,43.18727254 M190.07039949,43.18727254 L151.73205081,99.00000000"></path><path fill="green" stroke-width="1" stroke="green" d="M151.73205081,99.00000000 L190.07039949,43.18727254 A90.00000000,60.00000000,0,0,1,220.34713591,57.85216362 M220.34713591,57.85216362 L151.73205081,99.00000000"></path><path fill="green" stroke-width="1" stroke="green" d="M151.73205081,99.00000000 L220.34713591,57.85216362 A90.00000000,60.00000000,0,0,1,239.05918808,79.45898034 M239.05918808,79.45898034 L151.73205081,99.00000000"></path><path fill="green" stroke-width="1" stroke="green" d="M151.73205081,99.00000000 L239.05918808,79.45898034 A90.00000000,60.00000000,0,0,1,242.97107220,104.27170780 M242.97107220,104.27170780 L151.73205081,99.00000000"></path><path fill="green" stroke-width="1" stroke="green" d="M151.73205081,99.00000000 L242.97107220,104.27170780 A90.00000000,60.00000000,0,0,1,231.40638796,128.00000000 M231.40638796,128.00000000 L151.73205081,99.00000000"></path><path fill="red" stroke-width="1" stroke="red" d="M148.26794919,101.00000000 L224.47818473,132.00000000 A90.00000000,60.00000000,0,0,1,165.24795056,160.68885604 M165.24795056,160.68885604 L148.26794919,101.00000000"></path><path fill="red" stroke-width="1" stroke="red" d="M148.26794919,101.00000000 L165.24795056,160.68885604 A90.00000000,60.00000000,0,0,1,93.63522568,150.54101966 M93.63522568,150.54101966 L148.26794919,101.00000000"></path><path fill="red" stroke-width="1" stroke="red" d="M148.26794919,101.00000000 L93.63522568,150.54101966 A90.00000000,60.00000000,0,0,1,57.02892780,108.27170780 M57.02892780,108.27170780 L148.26794919,101.00000000"></path><path fill="red" stroke-width="1" stroke="red" d="M148.26794919,101.00000000 L57.02892780,108.27170780 A90.00000000,60.00000000,0,0,1,79.65286409,61.85216362 M79.65286409,61.85216362 L148.26794919,101.00000000"></path><path fill="red" stroke-width="1" stroke="red" d="M148.26794919,101.00000000 L79.65286409,61.85216362 A90.00000000,60.00000000,0,0,1,146.53589838,42.00000000 M146.53589838,42.00000000 L148.26794919,101.00000000"></path><text x="280" y="67" font-weight = "bold" font-size = "14">33% (1) Passed</text><circle cx="270" cy="62" r="5" stroke="darkgreen" stroke-width="1" fill="green" /><text x="280" y="97" font-weight = "bold" font-size = "14">67% (2) Failed</text><circle cx="270" cy="92" r="5" stroke="darkred" stroke-width="1" fill="red" /><text x="280" y="127" font-weight = "bold" font-size = "14">0% (0) Undefined</text><circle cx="270" cy="122" r="5" stroke="darkgray" stroke-width="1" fill="silver" /><text x="280" y="157" font-weight = "bold" font-size = "14">0% (0) Known</text><circle cx="270" cy="152" r="5" stroke="goldenrod" stroke-width="1" fill="gold" />
                    </svg>